<?xml version="1.0" standalone="no"?>
<!DOCTYPE svg PUBLIC "-//W3C//DTD SVG 20010904//EN"
 "http://www.w3.org/TR/2001/REC-SVG-20010904/DTD/svg10.dtd">
<svg version="1.0" xmlns="http://www.w3.org/2000/svg"
 width="512.000000pt" height="512.000000pt" viewBox="0 0 512.000000 512.000000"
 preserveAspectRatio="xMidYMid meet">
<metadata>
Created by potrace 1.14, written by Peter Selinger 2001-2017
</metadata>
<g transform="translate(0.000000,512.000000) scale(0.100000,-0.100000)"
fill="#000000" stroke="none">
<path d="M329 4024 c-5 -7 -9 -27 -9 -45 0 -19 1 -83 1 -143 0 -60 2 -113 5
-117 3 -5 2 -9 -3 -9 -4 0 -8 -25 -8 -55 0 -30 2 -55 5 -55 4 0 4 -117 -1
-130 -1 -3 -1 -8 0 -13 1 -8 1 -69 0 -97 0 -17 1 -193 2 -290 0 -36 1 -71 0
-77 0 -7 0 -70 0 -140 0 -71 -1 -144 -1 -163 -1 -19 -2 -42 -1 -50 0 -8 0 -40
0 -70 0 -30 0 -62 0 -70 1 -8 1 -33 0 -55 -1 -22 -1 -44 -1 -50 1 -5 1 -57 1
-115 1 -58 1 -134 2 -170 0 -36 1 -69 0 -75 -5 -135 -4 -235 2 -235 5 0 6 -4
3 -9 -6 -9 -8 -71 -4 -136 l3 -40 193 -3 192 -2 0 900 c0 516 4 900 9 900 5 0
16 -17 26 -37 34 -74 78 -169 120 -258 24 -49 60 -126 80 -170 21 -44 59 -125
85 -180 26 -55 62 -131 80 -170 106 -229 159 -332 171 -337 8 -3 65 -6 126 -6
l113 -1 36 77 c20 42 68 142 105 220 38 79 69 145 69 147 0 2 45 97 100 210
55 114 100 209 100 211 0 1 29 63 64 136 35 73 66 140 69 148 4 10 6 11 6 2 1
-7 4 -11 9 -9 4 3 7 -392 6 -876 0 -535 3 -887 9 -894 7 -10 60 -13 203 -13
l194 0 1 23 c0 12 1 555 2 1205 1 780 -1 1186 -8 1191 -8 5 -434 7 -493 2 -7
0 -30 -38 -51 -83 -21 -46 -57 -123 -80 -171 -22 -49 -41 -90 -41 -91 0 -2
-24 -55 -54 -117 -64 -136 -102 -218 -166 -359 -61 -133 -146 -315 -168 -358
-17 -33 -17 -33 -31 -12 -8 12 -38 72 -66 133 -29 62 -85 180 -125 262 -40 83
-97 202 -127 265 -31 63 -82 171 -116 240 -33 69 -77 162 -98 208 -21 45 -42
82 -46 83 -4 1 -115 2 -246 3 -169 1 -241 -2 -248 -10z"/>
<path d="M2634 4025 c-2 -5 -3 -550 -2 -1210 l3 -1200 193 -3 192 -2 1 62 c0
35 0 437 0 894 1 468 5 837 10 845 5 8 9 9 9 3 0 -12 42 -104 156 -342 35 -74
64 -135 64 -137 0 -2 34 -75 75 -161 42 -87 92 -194 113 -238 20 -45 59 -126
87 -181 l50 -100 105 -2 c58 -2 114 -1 125 2 13 3 28 21 40 47 10 24 51 111
90 193 40 83 87 182 105 220 18 39 57 122 87 185 30 63 71 149 90 190 127 270
156 324 162 308 3 -10 6 -412 5 -895 0 -610 3 -880 10 -885 6 -4 98 -8 204 -8
146 0 192 3 193 13 0 6 2 549 2 1205 1 786 -1 1196 -8 1201 -5 3 -120 6 -255
6 l-245 0 -32 -65 c-18 -36 -61 -128 -97 -205 -67 -146 -129 -279 -176 -380
-15 -33 -39 -85 -53 -115 -14 -30 -46 -100 -72 -155 -26 -55 -63 -136 -82
-180 -61 -138 -52 -140 -137 36 -40 85 -112 234 -160 333 -47 98 -86 180 -86
182 0 1 -41 87 -91 191 -50 103 -109 225 -130 271 -21 45 -44 82 -51 83 -85 7
-491 2 -494 -6z"/>
</g>
</svg>
