<?xml version="1.0" standalone="yes"?>
<svg xmlns="http://www.w3.org/2000/svg" width="512" height="512">
<path style="fill:#323131; stroke:none;" d="M0 0L0 512L512 512L512 0L0 0z"/>
<path style="fill:#fec20d; stroke:none;" d="M72 172L73 172C75.1379 181.882 81.385 191.854 85.7022 201C94.8271 220.331 104.438 239.476 113.139 259C116.111 265.67 121.493 284.599 129.094 286.682C133.773 287.964 149.423 288.89 153.034 285.397C160.367 278.302 164.225 263.169 168.551 254C177.048 235.99 185.674 218.054 194.083 200C198.071 191.439 204.338 182.324 206 173L207 173C208.524 187.281 207 202.596 207 217L207 307L207 339C207 342.565 206.001 348.61 209.434 350.972C215.547 355.18 232.669 352.003 240 352C242.876 351.999 247.842 352.841 249.397 349.682C251.809 344.779 250 335.396 250 330L250 281L250 108L213 108C208.812 108 202.045 106.737 198.34 109.028C191.047 113.538 185.381 133.174 182 141C173.422 160.856 163.917 180.371 154.836 200C150.555 209.252 144.158 219.025 142 229C124.819 201.778 113.645 169.796 99.2469 141C95.1121 132.73 90.542 114.088 82.6096 109.028C79.5697 107.089 74.4379 108 71 108L43 108C39.7801 108 33.5335 106.804 31.7423 110.318C29.5542 114.61 31 122.289 31 127L31 168L31 296L31 333C31 337.621 29.725 344.55 31.6034 348.852C34.3953 355.246 55.9592 352.003 62 352C64.607 351.999 68.9661 352.739 70.821 350.397C73.3661 347.183 72 339.851 72 336L72 300L72 251L72 172z"/>
<path style="fill:#f8f8f8; stroke:none;" d="M303 172L304 172C307.321 187.35 317.818 202.79 324.465 217C334.311 238.052 342.288 265.243 356.188 283.852C359.798 288.685 378.96 289.141 383.61 285.397C390.246 280.051 393.555 266.536 397.219 259C406.583 239.741 415.733 220.36 424.881 201C428.981 192.323 432.096 180.831 439 174C434.603 208.794 438 245.914 438 281C438 301.854 434.332 326.522 438.228 346.981C439.906 355.791 463.018 352.003 470 352C472.873 351.999 477.905 352.813 479.972 350.258C482.779 346.788 481 337.257 481 333L481 287L481 108L444 108C439.812 108 433.045 106.737 429.34 109.028C422.047 113.538 416.381 133.174 413 141C404.127 161.538 394.246 181.668 384.92 202C380.951 210.652 375.015 219.687 373 229C355.819 201.778 344.645 169.796 330.247 141C326.144 132.794 321.448 114.028 313.61 109.028C310.57 107.089 305.438 108 302 108L274 108C270.78 108 264.534 106.804 262.742 110.318C260.554 114.61 262 122.289 262 127L262 168L262 296L262 333C262 337.621 260.725 344.55 262.603 348.852C265.395 355.246 286.959 352.003 293 352C295.607 351.999 299.966 352.739 301.821 350.397C304.366 347.183 303 339.851 303 336L303 300L303 251L303 172z"/>
<path style="fill:#c8c8c8; stroke:none;" d="M320 121L321 122L320 121z"/>
<path style="fill:#ff0101; stroke:none;" d="M206 173L207 174L206 173z"/>
<path style="fill:#c8c8c8; stroke:none;" d="M438 174L439 175L438 174M395 179L396 180L395 179M310 187L311 188L310 187z"/>
<path style="fill:#ff0101; stroke:none;" d="M194 198L195 199L194 198M193 201L194 202L193 201z"/>
<path style="fill:#c8c8c8; stroke:none;" d="M381 209L382 210L381 209z"/>
<path style="fill:#ff0101; stroke:none;" d="M95 221L96 222L95 221z"/>
<path style="fill:#c8c8c8; stroke:none;" d="M338 246L339 247L338 246M341 252L342 253L341 252M393 265L394 266L393 265M383 286L384 287L383 286M479 351L480 352L479 351z"/>
</svg>
